# xmcd
#
# Track frame offsets:
#	150
#	13584
#	34982
#	51417
#	71289
#	85618
#	103058
#	121329
#	139136
#	154192
#	171450
#	190236
#
# Disc length: 2842 seconds
#
# Revision: 2
# Processed by: cddbd v1.4PL0 Copyright (c) Steve Scherf et al.
# Submitted via: EZCDDA 4.3.2
#
DISCID=a30b180c
DTITLE=Celine Dion - 1 fille and 4 types
DYEAR=1900
DGENRE=
TTITLE0=Tout l'or des hommes
TTITLE1=Apprends-moi
TTITLE2=Le vol d'un ange
TTITLE3=Ne bouge pas
TTITLE4=Tu nages
TTITLE5=Je t'aime encore
TTITLE6=Retiens-moi
TTITLE7=Je lui dirai
TTITLE8=Mon homme
TTITLE9=Rien n'est vraiment fini
TTITLE10=Contre nature
TTITLE11=Des milliers de baisers
EXTD=
EXTT0=
EXTT1=
EXTT2=
EXTT3=
EXTT4=
EXTT5=
EXTT6=
EXTT7=
EXTT8=
EXTT9=
EXTT10=
EXTT11=
PLAYORDER=
